<?xml version="1.0" encoding="UTF-8" standalone="no"?>
<!DOCTYPE svg PUBLIC "-//W3C//DTD SVG 1.1//EN" "http://www.w3.org/Graphics/SVG/1.1/DTD/svg11.dtd">
<svg width="100%" height="100%" viewBox="0 0 64 64" version="1.1" xmlns="http://www.w3.org/2000/svg" xmlns:xlink="http://www.w3.org/1999/xlink" xml:space="preserve" xmlns:serif="http://www.serif.com/" style="fill-rule:evenodd;clip-rule:evenodd;stroke-linecap:round;stroke-linejoin:round;stroke-miterlimit:1.5;">
    <g transform="matrix(0.75,0,0,0.75,8,8)">
        <rect x="0" y="0" width="64" height="64" style="fill:rgb(0,33,55);"/>
    </g>
    <g>
        <g transform="matrix(0.875,0,0,0.912446,4,2.80171)">
            <path d="M64,7.365C64,3.3 60.559,0 56.32,0L7.68,0C3.441,0 0,3.3 0,7.365L0,56.635C0,60.7 3.441,64 7.68,64L56.32,64C60.559,64 64,60.7 64,56.635L64,7.365ZM57.143,7.365L57.143,56.635C57.143,57.071 56.774,57.424 56.32,57.424L7.68,57.424C7.226,57.424 6.857,57.071 6.857,56.635C6.857,56.635 6.857,7.365 6.857,7.365C6.857,6.929 7.226,6.576 7.68,6.576C7.68,6.576 56.32,6.576 56.32,6.576C56.774,6.576 57.143,6.929 57.143,7.365Z" style="fill:rgb(252,211,77);"/>
        </g>
        <path d="M32,6L18,16L18,40L32,50L46,40L46,16L32,6ZM32,15.831L38,20.117C38,20.117 38,35.883 38,35.883C38,35.883 32,40.169 32,40.169C32,40.169 26,35.883 26,35.883C26,35.883 26,20.117 26,20.117L32,15.831Z" style="fill:rgb(252,211,77);"/>
        <g transform="matrix(1,0,0,1,-3.55271e-15,2)">
            <path d="M8,6L20,18L32,6L44,18L56,6L8,6Z" style="fill:rgb(252,211,77);stroke:rgb(252,211,77);stroke-width:5px;"/>
        </g>
    </g>
</svg>
