<svg xmlns="http://www.w3.org/2000/svg" xml:space="preserve" fill-rule="evenodd" stroke-linecap="round" stroke-linejoin="round" stroke-miterlimit="1.5" clip-rule="evenodd" viewBox="0 0 64 64">
  <path fill="#002137" d="M8 8h48v48H8z"/>
  <path fill="#fcd34d" d="M60 9.52187479C60 5.8127818 56.989125 2.80171 53.28 2.80171H10.72C7.010875 2.80171 4 5.8127818 4 9.52187479v44.95621442C4 58.1871822 7.010875 61.198254 10.72 61.198254h42.56c3.709125 0 6.72-3.0110718 6.72-6.72016479V9.52187479Zm-5.999875 0v44.95621442c0 .39782646-.322875.7199199-.720125.7199199H10.72c-.39725 0-.720125-.32209344-.720125-.7199199V9.52187479c0-.39782646.322875-.7199199.720125-.7199199h42.56c.39725 0 .720125.32209344.720125.7199199Z"/>
  <path fill="#fcd34d" d="M32 6 18 16v24l14 10 14-10V16L32 6Zm0 9.831 6 4.286v15.766l-6 4.286-6-4.286V20.117l6-4.286Z"/>
  <path fill="#fcd34d" stroke="#fcd34d" stroke-width="5" d="m8 8 12 12L32 8l12 12L56 8H8Z"/>
</svg>
