<?xml version="1.0" encoding="UTF-8" standalone="no"?><!DOCTYPE svg PUBLIC "-//W3C//DTD SVG 1.1//EN" "http://www.w3.org/Graphics/SVG/1.1/DTD/svg11.dtd"><svg width="100%" height="100%" viewBox="0 0 384 384" version="1.1" xmlns="http://www.w3.org/2000/svg" xmlns:xlink="http://www.w3.org/1999/xlink" xml:space="preserve" xmlns:serif="http://www.serif.com/" style="fill-rule:evenodd;clip-rule:evenodd;stroke-linecap:round;stroke-miterlimit:1.5;"><circle cx="191.667" cy="175" r="32.559" style="fill:none;stroke:#fff;stroke-width:20.83px;"/><path d="M189.806,39.94c-17.516,18.085 -31.106,37.916 -41.676,59.475c-84.424,51.904 -34.89,165.263 45.149,164.1c76.749,-1.116 126.162,-112.745 41.676,-164.1c-10.696,-21.64 -27.504,-41.31 -45.149,-59.475Z" style="fill:none;stroke:#fff;stroke-width:20.83px;stroke-linejoin:round;"/><path d="M14.76,18.233l33.862,116.78c-23.332,93.736 16.386,150.099 100.717,183.636l42.111,50.792l39.071,-49.49c81.912,-31.239 122.997,-88.289 104.19,-183.201l33.862,-119.385c-40.347,20.697 -74.552,48.764 -103.322,83.352c120.333,220.25 -259.476,240.299 -150.642,0c-25.991,-35.394 -59.965,-62.139 -99.849,-82.484Z" style="fill:none;stroke:#fff;stroke-width:20.83px;stroke-linejoin:round;"/></svg>