<svg xmlns="http://www.w3.org/2000/svg" xml:space="preserve" fill-rule="evenodd" stroke-linejoin="round" stroke-miterlimit="2" clip-rule="evenodd" viewBox="0 0 64 64">
  <path fill="none" d="M-.0002 0h63.9999v64H-.0002z"/>
  <path d="m32.00000532 30.00008-5.4999914-5.25c-6.15699039 3.999-7.51998826 10.251-2.4999961 19.5l-6.99998906-8.5c-1.20399812 7.943.72799886 15.412 8.49998671 22-12.46498052-5.308-21.60396624-13.021-19.99996875-28.5l5.49999141 4c8.56598662-6.582 12.4179806-13.248 11.49998203-20 5.96599068-10.509 12.12798105-10.761 18.4999711 0-.91799857 6.752 2.93399541 13.418 11.49998203 20l5.4999914-4c1.6039975 15.479-7.53498822 23.192-19.99996875 28.5 7.77198786-6.588 9.70398484-14.057 8.49998672-22l-6.99998906 8.5c5.01999216-9.249 3.65699429-15.501-2.4999961-19.5l-4.99999218 5.25Z"/>
  <path d="M31.7500057 57.75 37.49999673 48l-1.99999687-3c3.23499495-5.166 4.18699346-9.482 2.99999531-13-1.04699836 3.868-2.65299585 6.953-4.99999219 9h-3.49999453c-2.34699633-2.047-3.95299382-5.132-4.99999218-9-1.18699815 3.518-.23499964 7.834 2.9999953 13l-1.99999687 3 5.74999102 9.75Z"/>
</svg>
