<svg xmlns="http://www.w3.org/2000/svg" xml:space="preserve" fill-rule="evenodd" stroke-linejoin="round" stroke-miterlimit="2" clip-rule="evenodd" viewBox="0 0 64 64">
  <path fill="none" d="M-.0002 0h63.9999v64H-.0002z"/>
  <path d="m32.17874972 5.919-2.58599596 5.477 2.58599596 2.247 2.76299568-2.247-2.76299568-5.477ZM19.72876917 6.905l1.63499745 5.919 3.29699485.284.98599846-3.244-5.91799076-2.959ZM44.63566643 6.905l-1.63499745 5.919-3.29699485.284-.98599846-3.244 5.91799076-2.959ZM22.68776455 23.674l-2.95899538 6.906 6.29499017 9.864-2.34899633 9.864 8.51898669 8.37 9.23598557-8.37L37.48474143 32l-9.86498459-.434-.03799994-2.486h3.4549946l1.51499764-2.032v-1.401l-9.86398459-1.973Z"/>
  <path d="M35.51174451 28.607c2.66499584-.168 4.42899308 1.187 5.35999163 3.945l2.1139967-1.602V19.729l-18.97997035-3.946-.33099948.986v3.946l13.21397935 1.973-1.37699785 5.919ZM58.36064498 50.562016v1.973l-5.83299088 5.919-7.89198767-6.905-2.95899538-10.851c5.45399148 6.713 11.55698194 11.576 16.68397393 9.864ZM6.00379062 50.308v1.973L11.8367815 58.2l7.89198767-6.905 2.95899538-10.851c-5.45399148 6.713-11.55698194 11.576-16.68397393 9.864ZM54.25371523 5.919c-.81199873 7.378-3.15099508 12.702-7.89098767 14.796V32c-1.13099824 1.646-2.85299554 3.123-4.9329923 4.498l.98699846 1.973c2.6299959-2.739 5.26099178-2.68 7.89098767 0 7.80298781-6.969 12.01098124-16.089 3.94599384-32.552ZM9.86378459 5.919c.30499952 7.326 5.44899148 14.431 9.86498458 15.783l-3.94599383 9.864 3.94599383 4.932c-2.48699611-.326-4.07099364.402-4.93199229 1.973-9.55098508-5.969-11.516982-17.298-4.9329923-32.552Z"/>
</svg>
