<?xml version="1.0" encoding="UTF-8" standalone="no"?>
<!DOCTYPE svg PUBLIC "-//W3C//DTD SVG 1.1//EN" "http://www.w3.org/Graphics/SVG/1.1/DTD/svg11.dtd">
<svg width="100%" height="100%" viewBox="0 0 64 64" version="1.1" xmlns="http://www.w3.org/2000/svg" xmlns:xlink="http://www.w3.org/1999/xlink" xml:space="preserve" xmlns:serif="http://www.serif.com/" style="fill-rule:evenodd;clip-rule:evenodd;stroke-linejoin:round;stroke-miterlimit:2;">
    <g transform="matrix(1,0,0,1,-144,0)">
        <g id="Mage" transform="matrix(1.3617,0,0,1.6,44.5957,12.8)">
            <rect x="73" y="-8" width="47" height="40" style="fill:none;"/>
            <g transform="matrix(0.734375,0,0,0.625,-32.75,-8)">
                <path d="M176,46.5C189,28.5 190,36 176,14C172.919,18.356 167.895,13.184 175.5,6C169.449,7.267 162.105,12.401 168,22.5L172,20.5C164.5,33.5 163.5,30 176,46.5ZM174.824,26.374C174.311,27.271 173.798,28.168 173.284,29.064L171.868,31.551C171.988,31.81 172.358,32.584 172.722,33.147C173.509,34.366 174.589,35.812 175.985,37.637L175.985,37.637C177.266,36.027 178.348,34.72 179.223,33.604C179.807,32.858 180.446,31.861 180.686,31.479C180.628,31.319 180.542,31.096 180.466,30.936C180.152,30.281 179.719,29.546 179.177,28.68C178.376,27.399 177.369,25.892 176.153,24.063L174.824,26.374Z"/>
            </g>
            <g transform="matrix(0.734375,0,0,0.625,-32.75,-8)">
                <path d="M149.5,47.5L152,40C163.713,39.612 171.738,43.582 176,52C181.037,43.308 189.028,39.201 200.5,40.5L202.5,47.5C191.402,46.06 184.155,48.658 180,54.5L184.5,54.5L184.5,58.5L167.5,58.5L167.5,54.5L172.5,54.5C168.265,47.853 159.666,46.692 149.5,47.5Z"/>
            </g>
        </g>
    </g>
</svg>
