<svg xmlns="http://www.w3.org/2000/svg" xml:space="preserve" fill-rule="evenodd" stroke-linejoin="round" stroke-miterlimit="2" clip-rule="evenodd" viewBox="0 0 64 64">
  <path fill="none" d="M-.0002 0h63.9999v64H-.0002z"/>
  <path d="m32.2494943 28 5.24999179-6c6.73298948 3.694 9.7909847 3.299 9.3439854-1 7.13998884 6.636 10.34298384 12.906 11.65598179 19-2.74599571-3.51-6.86798927-6.138-12.9999797-7.48-1.57399753 3.312-4.25799334 5.793-7.9999875 7.48l.99999844-5.559 2.558996-2.441h-4.55899287l-2.99999531 16 4.55499288 5.502L37.49948609 59l-5.2499918-2.552L26.9995025 59l-.55499913-5.498L30.99949624 48l-2.9999953-16h-4.55899289l2.558996 2.441L26.9995025 40c-3.74199415-1.687-6.42598996-4.168-7.9999875-7.48C12.86752458 33.862 8.74553102 36.49 5.99953531 40c1.31299794-6.094 4.51599294-12.364 11.65598178-19-.4469993 4.299 2.61099592 4.694 9.3439854 1l5.2499918 6Z"/>
  <path d="M32.21574966 6.081 27.99975625 17.5l4.21599341 5 4.2839933-5-4.2839933-11.419ZM17.99977187 11.5l2.4999961 8h3.99999375l.99999844-3.5-7.49998829-4.5ZM46.49947202 11.5l-2.49999609 8h-3.99999375l-.99999844-3.5 7.49998828-4.5Z"/>
</svg>
