<svg xmlns="http://www.w3.org/2000/svg" xml:space="preserve" fill-rule="evenodd" stroke-linejoin="round" stroke-miterlimit="2" clip-rule="evenodd" viewBox="0 0 64 64">
  <path fill="none" d="M-.0002 0h63.9999v64H-.0002z"/>
  <path d="M54.4992042 6.08144c-.16999973 9.397-4.3459932 16.361-13.99997812 20l-2.4999961 14c3.5939944 8.339 12.5459804-.798 4.49999298-4 2.29399641-3.754 5.1809919-5.335 8.99998593-3.5l2.4999961-2.081-3.99999375-1.5h4.99999218l3.49999454-6.419-5.49999141-2 5.99999062-.5c.4519993-5.317-.8879986-10.037-4.49999296-14ZM10.4997836 6c.16999973 9.397 4.3459932 16.361 13.99997812 20l2.4999961 14c-3.5939944 8.339-12.5459804-.798-4.49999298-4-2.29399641-3.754-5.1809919-5.335-8.99998593-3.5l-2.99999532-3 4.49999297-2H8.99978594l-2.4999961-5 5.49999141-2-5.99999063-.5c-.45199929-5.317.88799862-10.037 4.49999297-14Z"/>
  <path d="m35.99974375 8.5 3.49999453 9-4.99999219 13V45l2.99999532 8.5-2.99999532 5h-3.99999375l-2.9999953-5 2.9999953-8.5V30.5l-4.99999218-13 3.49999453-9h6.99998906Zm-1.99999688 5 1.49999766 4-2.99999531 7.5-2.99999531-7.5 1.49999765-4h2.99999531Z"/>
</svg>
