<svg xmlns="http://www.w3.org/2000/svg" xml:space="preserve" fill-rule="evenodd" stroke-linejoin="round" stroke-miterlimit="2" clip-rule="evenodd" viewBox="0 0 64 64">
  <path fill="none" d="M-.0002 0h63.9999v64H-.0002z"/>
  <path d="M5.99979062 14.5 9.99978437 42 28.9997547 58c2.26999645 1.132 4.44199306 1.196 6.49998984 0l19.49996953-16 3.49999453-27.5L35.99974375 6h-7.49998828L5.99979062 14.5Zm3.75799413 2.215L29.1207545 9.4h6.25799022l19.40896967 7.332-2.98999532 23.497L33.5927475 55.166c-.87899863.429-1.7929972.35-2.74399571-.055-.003-.001-17.6699724-14.879-17.6699724-14.879L9.75778476 16.715Z"/>
  <path d="m15.999775 21.5 9.49998516-5v3h13.99997812v-3l8.99998594 7-2.4999961 9.5-7.49998828 2.5V32H25.99975937v3.5L18.4997711 33 15.999775 21.5ZM27.99975625 16h8.49998672l-4.24999336-5-4.24999336 5ZM35.49974453 42.5V56H28.9997547V42.5h-4.49999297V37H39.9997375v5.5h-4.49999297Z"/>
</svg>
